<svg xmlns="http://www.w3.org/2000/svg" width="140" height="40" viewBox="0 0 140 40"><g><g><path fill="#00b985" d="M0 23.65l30.27-3.377V13.38L0 18.11v5.54z"/></g><g><path fill="#00b985" d="M0 9.736v5.409l30.27-4.76V0L0 9.736z"/></g><g><path fill="#00b985" d="M0 40.002h30.27V33.65L0 34.598v5.404z"/></g><g><path fill="#00b985" d="M0 31.89l30.27-1.218V23.24L0 26.35v5.54z"/></g><g><path fill="#334850" d="M30.81 20.273l17.297 3.377v-5.54L30.81 13.38v6.893z"/></g><g><path fill="#334850" d="M30.81 40.002h17.297v-5.405L30.81 33.65v6.353z"/></g><g><path fill="#334850" d="M30.81 0v10.384l17.297 4.761V9.736L30.81 0z"/></g><g><path fill="#334850" d="M30.81 30.672l17.297 1.218v-5.54L30.81 23.24v7.433z"/></g><g><path fill="#334850" d="M57.805 15.76v6.365c0 .74-.06 1.83-.18 3.268l6.225-9.633h3.22v12.415h-2.535V21.92c0-.344.02-.9.06-1.671.043-.771.078-1.334.108-1.684l-6.205 9.61H55.28V15.76z"/></g><g><path fill="#334850" d="M83.093 28.168H80.4v-7.39h-7.56v7.39h-2.68V11.77h2.68v6.707h7.56V11.77h2.692z"/></g><g><path fill="#334850" d="M96.555 14.09v11.783h-7.1a34.802 34.802 0 0 0 2.3-5.873 31.362 31.362 0 0 0 1.25-5.91zM85.36 32.69h2.58v-4.522h10.838v4.522h2.58v-6.82h-2.12v-14.1h-8.47a37 37 0 0 1-1.413 7.425 34.212 34.212 0 0 1-2.728 6.675H85.36z"/></g><g><path fill="#334850" d="M110.323 18.33c.485.528.735 1.307.75 2.335h-5.63c.101-1.018.402-1.795.902-2.33a2.646 2.646 0 0 1 2-.797c.743-.041 1.467.249 1.978.792zm-1.495 10.065a11.94 11.94 0 0 0 2.254-.193 8.182 8.182 0 0 0 1.953-.65V25.41a11 11 0 0 1-2.035.69 9.63 9.63 0 0 1-2.047.208c-1.116 0-1.98-.324-2.593-.97-.613-.647-.938-1.573-.975-2.778h8.268v-1.425c-.002-1.737-.477-3.105-1.426-4.105-.948-1-2.242-1.5-3.882-1.5-1.763.008-3.15.592-4.16 1.75-1.01 1.158-1.515 2.75-1.515 4.778-.002 1.975.543 3.525 1.633 4.65 1.09 1.125 2.598 1.687 4.525 1.687z"/></g><g><path fill="#334850" d="M123.335 15.76h2.895l-5.128 5.987 5.565 6.428h-3.03l-5.36-6.303v6.293h-2.637V15.76h2.637v6.022z"/></g><g><path fill="#334850" d="M135.335 13.835c-1.54 0-2.75.546-3.632 1.637-.882 1.092-1.324 2.602-1.325 4.53 0 2.014.424 3.536 1.272 4.568.848 1.032 2.077 1.547 3.685 1.547a9.73 9.73 0 0 0 2.02-.207c.65-.138 1.328-.318 2.03-.533v2.3a12.332 12.332 0 0 1-4.375.728c-2.4 0-4.243-.728-5.53-2.183-1.287-1.455-1.93-3.538-1.927-6.25a10.08 10.08 0 0 1 .935-4.47 6.685 6.685 0 0 1 2.71-2.937 8.165 8.165 0 0 1 4.16-1.023c1.608-.017 3.199.342 4.645 1.048l-.965 2.232c-.568-.268-1.152-.499-1.75-.69-.632-.2-1.29-.3-1.953-.297z"/></g></g></svg>